<svg xmlns="http://www.w3.org/2000/svg" viewBox="0 0 121.18 179.83"><defs><style>.cls-1{fill:none;}.cls-1,.cls-2{stroke:#000;stroke-miterlimit:10;stroke-width:4px;}.cls-2{fill:#fff;}</style></defs><title>length_short</title><g id="Layer_2" data-name="Layer 2"><g id="Layer_1-2" data-name="Layer 1"><g id="lengthShort"><path class="cls-1" d="M2.7,179.78c-.59-23.25-.92-39.77-.54-60s.53-41,3.33-61.19A90.12,90.12,0,0,1,18.22,23.05c3.91-6.19,8.9-11.83,15.29-15.53C40.82,3.3,49.4,2,57.72,2c8.8,0,17.64,1.05,25.84,4.4,14.4,5.88,22.61,20.83,26.37,35.2,5.06,19.31,6.68,39.32,7.61,59.2,1,20.49,1.56,41,1.63,61.51,0,5.53,0,11.07,0,16.6"/><line class="cls-1" x1="36.96" y1="150.28" x2="82.54" y2="149.1"/><path class="cls-2" d="M25.11,100C29,113.69,44,119.13,56.92,119.87l1.57.06c12.91.3,26.63-3.55,33.83-15.05,4.83-7.7,4.85-17.65,5.45-26.45a127.94,127.94,0,0,0-.84-28.67A80,80,0,0,0,94.33,38.4c-3.23-10.35-9.53-20.21-20.16-24-4.94-1.77-10.15-2-15.34-1.91-7.12.1-14.13,1.34-20,5.54C24.54,28.21,22.42,49,22.2,65.1q0,1.19,0,2.38c0,7.45.53,14.85,1.2,22.26A55.71,55.71,0,0,0,25.11,100Z"/></g></g></g></svg>