<svg xmlns="http://www.w3.org/2000/svg" viewBox="0 0 116.13 143.58"><defs><style>.cls-1{ fill: #2EC4B6;}</style></defs><g id="Layer_2" data-name="Layer 2"><g id="Layer_1-2" data-name="Layer 1"><path class="cls-1" d="M13.45,126.24c3.54-.95,5.24,1.06,7.2,2,27.14,13.52,62.56,3,76.61-22.73,8.76-16.08,7.16-37.33-5-51-10.76-12-22.59-23.09-33.88-34.66-1.78-1.82-2.89-1.39-4.46.19-10.66,10.78-21.67,21.22-32,32.29C9.83,65.27,10.78,85.48,23.4,98a33.24,33.24,0,0,0,45.7,1c8.87-8.06,9.4-20.65,1.14-29.37-3.78-4-7.8-7.75-11.58-11.74-1.67-1.76-2.89-2.27-4.81-.21-4,4.26-8.35,8.15-12.26,12.47-5.48,6.06-6.62,13.19-4,21.05C26.83,87.31,23,71.69,31,62.39c7.24-8.46,15.57-16,23.36-24,1.69-1.73,2.73-1,4.07.37,7.5,7.58,15.35,14.84,22.5,22.72C94.94,77,91.28,100.35,73.22,112.69,53.23,126.36,27,122.77,11,104.2a45.94,45.94,0,0,1,1.66-61.53C26,28.68,39.95,15.29,53.53,1.55c1.95-2,3.2-2.14,5.23-.08,13.8,14,28,27.58,41.5,41.9,21.65,23,21,59.13-1,81.92a60.13,60.13,0,0,1-81.59,4.42C16.43,128.66,15.15,127.63,13.45,126.24Z"/></g></g></svg>