<?xml version="1.0" encoding="utf-8"?>
<!-- Generator: Adobe Illustrator 21.1.0, SVG Export Plug-In . SVG Version: 6.00 Build 0)  -->
<svg version="1.1" id="Layer_1" xmlns="http://www.w3.org/2000/svg" xmlns:xlink="http://www.w3.org/1999/xlink" x="0px" y="0px"
	 viewBox="0 0 48 48" style="enable-background:new 0 0 48 48;" xml:space="preserve">
<style type="text/css">
	.st0{fill:#A6E4DF;}
</style>
<g>
	<g id="Layer_2_1_">
		<g id="Layer_1-2_1_">
			<path class="st0" d="M13.6,42.7c0.8-0.2,2.7,0.5,3.2,0.7c6.3,2.8,13.9,1,17.2-4.3c1-1.6,1.4-3.4,1.1-5.1c0-1.8-0.7-3.5-1.9-4.9
				c-1.1-1.3-2.7-3.6-3.9-4.8c-2.9-3.4-3.5-7.2-4.2-11.6c-1.9,3.8-1.3,8.8-4.8,12.2c-1.2,1.2-2.8,3.1-3.7,4.6
				c-0.9,1.3-1.2,2.8-0.8,4.4c0.2,1.5,1,2.8,2.1,3.8c2.9,2.6,6.3,2.6,9.4,0.2c1-0.8,1.7-2,1.6-3.3c-0.1-1.1-0.7-1.9-1.3-2.7
				c-0.7-0.8-1.3-1.7-2.1-2.4c-0.4-0.4-0.7-0.5-1.1,0c-1,1-2.4,2-3.3,3.1c-0.7,0.9-0.5,2.3,0.3,3.5c0.1,0.1,0.5,0.5,0.6,0.7
				c0-0.1-0.6-0.3-0.6-0.3c-1.4-0.5-3.1-1.8-3.6-3.2c-0.6-1.8,1.1-3.5,1.8-4c1.6-1.3,3.4-2.8,4.9-4.2c0.4-0.4,0.6-0.1,0.9,0.3
				c1.7,1.4,4.2,3.2,5.9,4.8c3.3,3.2,2.4,8-1.8,10.5c-2.8,1.7-6.4,2-9.6,1.4c-1.7-0.3-3.4-1-4.8-2s-2.6-2.3-1.8-3.5
				C11.1,34.1,11,32,14,30.3c-1.8-1.9-0.7-3.3,1.3-4.5c4.8-7.4,7.9-15.6,9.2-24.4c2.5,8.2,4.4,17,10.4,24.1c1.4,1.3,2.7,2.6,1.4,4.2
				c3,1.8,3.4,3.6,0.4,5.8c2.8,1.4,2.3,3.2,0.5,5.1c0.3,0.8-0.5,1.8-1.5,2.7c-5.1,4.6-14,5-19.7,0.9C15.7,43.9,14,42.9,13.6,42.7z"
				/>
		</g>
	</g>
</g>
</svg>
