<svg id="Layer_1" data-name="Layer 1" xmlns="http://www.w3.org/2000/svg" viewBox="0 0 26.96 45.62"><defs><style>.cls-1{fill:#5f2461;}</style></defs><title>nIcon1</title><g id="Layer_2" data-name="Layer 2"><g id="Layer_1-2" data-name="Layer 1-2"><path class="cls-1" d="M13.58,42.66a7.63,7.63,0,0,1,3.15.73c6.33,2.78,13.9,1,17.18-4.26A7.58,7.58,0,0,0,35,34a7.49,7.49,0,0,0-1.88-4.91c-1.13-1.31-2.68-3.59-3.87-4.78-2.91-3.43-3.54-7.21-4.17-11.62-1.89,3.78-1.26,8.82-4.79,12.22a26.94,26.94,0,0,0-3.73,4.58,5.44,5.44,0,0,0-.78,4.36,6.15,6.15,0,0,0,2.14,3.76,6.84,6.84,0,0,0,9.4.21A4,4,0,0,0,29,34.45a4.82,4.82,0,0,0-1.33-2.72,25.57,25.57,0,0,0-2.11-2.38c-.39-.36-.67-.47-1.12,0a34.21,34.21,0,0,0-3.26,3.14,2.8,2.8,0,0,0,.35,3.46,7.94,7.94,0,0,1,.61.67,3.71,3.71,0,0,0-.64-.28,6.09,6.09,0,0,1-3.61-3.18c-.59-1.79,1.1-3.48,1.8-4,1.62-1.25,3.36-2.83,4.86-4.18.39-.35.63-.1.94.34,1.73,1.38,4.22,3.21,5.88,4.83,3.27,3.19,2.41,8-1.8,10.52A13.65,13.65,0,0,1,20,42a12.71,12.71,0,0,1-4.8-2c-1.41-1-2.57-2.32-1.81-3.54C11.12,34.13,11,32,14,30.25c-1.82-1.87-.68-3.28,1.25-4.52a60.49,60.49,0,0,0,9.18-24.4c2.52,8.19,4.41,17,10.36,24.1,1.43,1.26,2.71,2.6,1.38,4.2,3,1.77,3.38,3.6.43,5.82,2.81,1.4,2.3,3.19.47,5.08.27.81-.55,1.81-1.49,2.67-5.1,4.63-14,5-19.66.91C15.69,43.89,14,42.95,13.58,42.66Z" transform="translate(-11.72 -1.33)"/></g></g></svg>