<svg xmlns="http://www.w3.org/2000/svg" viewBox="0 0 102.68 218.14"><defs><style>.cls-1{fill:none;}.cls-1,.cls-2{stroke:#000;stroke-miterlimit:10;stroke-width:4px;}.cls-2{fill:#fff;}</style></defs><title>shape_round</title><g id="Layer_2" data-name="Layer 2"><g id="Layer_1-2" data-name="Layer 1"><g id="round"><path class="cls-1" d="M2.55,216.89c0-27.45-2.17-64,2.08-112,1-11.07.4-19.58,13.59-34.14,12-13.2,50.78-11.22,61.61-4.64C97.72,77,99.53,94.87,100.49,111.6c.35,6.18.09,99.11.06,106.53"/><line class="cls-1" x1="32.72" y1="186.08" x2="78.16" y2="185.92"/><path class="cls-2" d="M15.29,131.5c0,18.87,22.87,27,38,26.48,28.55-1,32.91-19.23,33-27,.88-48.69,1.28-76.25,0-91.69C84.13,13.29,64.81,2,53.41,2,42.84,2,16,8.17,15.29,51.5,14.93,73.13,15.29,76.75,15.29,131.5Z"/></g></g></g></svg>