<svg xmlns="http://www.w3.org/2000/svg" viewBox="0 0 102.68 218.14"><defs><style>.cls-1,.cls-4{fill:none;}.cls-1,.cls-2,.cls-4{stroke:#000;stroke-miterlimit:10;}.cls-1,.cls-2{stroke-width:4px;}.cls-2{fill:#ccc;}.cls-3{fill:#fff;}.cls-4{stroke-width:3px;}</style></defs><title>style__4abstract</title><g id="Layer_2" data-name="Layer 2"><g id="Layer_1-2" data-name="Layer 1"><g id="abstract"><path class="cls-1" d="M2.55,216.89c0-27.45-2.17-64,2.08-112,1-11.07.4-19.58,13.59-34.14,12-13.2,50.78-11.22,61.61-4.64C97.72,77,99.53,94.87,100.49,111.6c.35,6.18.09,99.11.06,106.53"/><line class="cls-1" x1="32.72" y1="186.08" x2="78.16" y2="185.92"/><path class="cls-2" d="M15.29,131.5c0,18.87,22.87,27,38,26.48,28.55-1,32.91-19.23,33-27,.88-48.69,1.28-76.25,0-91.69C84.13,13.29,64.81,2,53.41,2,42.84,2,16,8.17,15.29,51.5,14.93,73.13,15.29,76.75,15.29,131.5Z"/><path class="cls-3" d="M16.7,126.71C15.82,156.79,52.41,156,52.41,156L51.33,4S17.32.88,17.24,53.88C17.21,74.79,18.27,72.71,16.7,126.71Z"/><line class="cls-4" x1="36" y1="42.24" x2="47.05" y2="67.74"/><line class="cls-4" x1="48.6" y1="42.24" x2="34.23" y2="67.74"/><line class="cls-4" x1="56.74" y1="41.24" x2="69.39" y2="66.49"/><line class="cls-4" x1="68.28" y1="41.24" x2="56.74" y2="65.24"/><path d="M32.12,83.79a4.64,4.64,0,0,1-.3,1.76A4,4,0,0,1,31,87a15.09,15.09,0,0,0-1.31,1.14A3.68,3.68,0,0,0,29,89.65a7,7,0,0,1-.54,1.62,8.47,8.47,0,0,1-.77,1.47A7.59,7.59,0,0,1,25.12,95l-.17-.11a7.59,7.59,0,0,1,.93-3.32,8.47,8.47,0,0,1,1-1.34,7,7,0,0,1,1.21-1.2,3.68,3.68,0,0,0,1.07-1.29,15.1,15.1,0,0,0,.44-1.68,4,4,0,0,1,.92-1.38,4.64,4.64,0,0,1,1.45-1Z"/><path d="M75.08,79.85a4.66,4.66,0,0,1,1.2,1.33,4.07,4.07,0,0,1,.61,1.54A15.17,15.17,0,0,0,77,84.46a3.69,3.69,0,0,0,.77,1.49,7.07,7.07,0,0,1,.94,1.43,8.52,8.52,0,0,1,.68,1.52,7.62,7.62,0,0,1,.21,3.45l-.19.07a7.62,7.62,0,0,1-2-2.8,8.52,8.52,0,0,1-.45-1.6,7.07,7.07,0,0,1-.19-1.7,3.69,3.69,0,0,0-.35-1.64,15.16,15.16,0,0,0-1-1.39,4.07,4.07,0,0,1-.51-1.58,4.66,4.66,0,0,1,.08-1.79Z"/><path d="M27.36,91.24c3.08,5.54,6.58,10.73,11.33,14.45a29.69,29.69,0,0,0,7.54,4.62,17.18,17.18,0,0,0,4.07,1.08,16,16,0,0,0,4.21,0c5.8-.65,11.56-2.92,15.28-7.4a31.25,31.25,0,0,0,4.56-7.75c1.24-2.83,2.18-5.83,3.18-8.85a47.82,47.82,0,0,1-1.32,9.48,28.16,28.16,0,0,1-3.94,9,20.84,20.84,0,0,1-7.67,6.64,27.64,27.64,0,0,1-9.66,2.84,19.63,19.63,0,0,1-5.21-.06,19.29,19.29,0,0,1-5-1.51A28.79,28.79,0,0,1,36.63,108a30.45,30.45,0,0,1-3.27-3.68,34.94,34.94,0,0,1-2.61-4.13A39.58,39.58,0,0,1,27.36,91.24Z"/></g></g></g></svg>