<svg xmlns="http://www.w3.org/2000/svg" viewBox="0 0 102.68 218.14"><defs><style>.cls-1{fill:none;}.cls-1,.cls-2{stroke:#000;stroke-miterlimit:10;stroke-width:4px;}.cls-2{fill:#ccc;}.cls-3{fill:#fff;stroke:gray;stroke-width:3px;}</style></defs><title>style_french</title><g id="Layer_2" data-name="Layer 2"><g id="Layer_1-2" data-name="Layer 1"><g id="french"><path class="cls-1" d="M2.55,216.89c0-27.45-2.17-64,2.08-112,1-11.07.4-19.58,13.59-34.14,12-13.2,50.78-11.22,61.61-4.64C97.72,77,99.53,94.87,100.49,111.6c.35,6.18.09,99.11.06,106.53"/><line class="cls-1" x1="32.72" y1="186.08" x2="78.16" y2="185.92"/><path class="cls-2" d="M15.29,131.5c0,18.87,22.87,27,38,26.48,28.55-1,32.91-19.23,33-27,.88-48.69,1.28-76.25,0-91.69C84.13,13.29,64.81,2,53.41,2,42.84,2,16,8.17,15.29,51.5,14.93,73.13,15.29,76.75,15.29,131.5Z"/><path class="cls-3" d="M17.2,70.08c.25-16.83-2.25-29,5.92-46.67A36.46,36.46,0,0,1,36.5,8.25,28.48,28.48,0,0,1,52.67,3.58C66.93,4,75.66,16.35,77,18.25,81.81,25,83.84,31,84.72,43.67a215.72,215.72,0,0,1-.05,29.08s.74-17.67-6.5-29.83c-1.2-2-11.72-19.58-28.68-18.52C36,25.25,24.77,38.81,22.37,45.58A113.43,113.43,0,0,0,17.2,70.08Z"/><path class="cls-3" d="M17,90.79a85.72,85.72,0,0,1,1-18.24,98.17,98.17,0,0,1,4.76-17.7c2-5.77,5-11.45,9.76-15.69a25.42,25.42,0,0,1,8.07-4.86,29.16,29.16,0,0,1,9.23-1.75,23.81,23.81,0,0,1,17.4,6.25,33.48,33.48,0,0,1,6,7.2,42.66,42.66,0,0,1,2.24,4.07c.66,1.37,1.33,2.74,2,4.13a71,71,0,0,1,3.38,8.56,67,67,0,0,1,2.11,8.95q.72,4.52,1.31,9c.4,3,.75,6,1,9.08-.89-6-2-12-3.24-17.94a66.88,66.88,0,0,0-5.92-17c-.67-1.36-1.36-2.7-2.06-4.05a42.94,42.94,0,0,0-2.22-3.88A31.68,31.68,0,0,0,66,40.2a23.08,23.08,0,0,0-7.47-4.45,22.43,22.43,0,0,0-8.61-1.21,28,28,0,0,0-8.62,1.6,23.65,23.65,0,0,0-7.49,4.45c-4.46,3.86-7.41,9.23-9.56,14.81A98.28,98.28,0,0,0,17,90.79Z"/></g></g></g></svg>