<svg xmlns="http://www.w3.org/2000/svg" xmlns:xlink="http://www.w3.org/1999/xlink" viewBox="0 0 102.68 218.14"><defs><style>.cls-1{fill:none;}.cls-1,.cls-2{stroke:#000;stroke-miterlimit:10;stroke-width:4px;}.cls-2{fill:#ccc;}.cls-3{fill:url(#linear-gradient);}</style><linearGradient id="linear-gradient" x1="17.11" y1="49.12" x2="87.02" y2="49.12" gradientTransform="translate(0 28.35) scale(1 1.08)" gradientUnits="userSpaceOnUse"><stop offset="0" stop-color="#a197a3"/><stop offset="0.3" stop-color="#c7c1c9"/><stop offset="0.63" stop-color="#f6f5f7"/><stop offset="0.77" stop-color="#fbfbfc"/><stop offset="1" stop-color="#fff"/></linearGradient></defs><title>style__3ombre</title><g id="Layer_2" data-name="Layer 2"><g id="Layer_1-2" data-name="Layer 1"><g id="ombre"><path class="cls-1" d="M2.55,216.89c0-27.45-2.17-64,2.08-112,1-11.07.4-19.58,13.59-34.14,12-13.2,50.78-11.22,61.61-4.64C97.72,77,99.53,94.87,100.49,111.6c.35,6.18.09,99.11.06,106.53"/><line class="cls-1" x1="32.72" y1="186.08" x2="78.16" y2="185.92"/><path class="cls-2" d="M15.29,131.5c0,18.87,22.87,27,38,26.48,28.55-1,32.91-19.23,33-27,.88-48.69,1.28-76.25,0-91.69C84.13,13.29,64.81,2,53.41,2,42.84,2,16,8.17,15.29,51.5,14.93,73.13,15.29,76.75,15.29,131.5Z"/><path class="cls-3" d="M17.27,131.91c0,18.57,22.21,26.58,36.86,26.05,27.73-1,32-18.92,32.1-26.6.85-47.9,1.25-75,0-90.19C84.13,15.63,65.37,4.52,54.3,4.52,44,4.52,18,10.59,17.27,53.22,16.92,74.49,17.27,78.05,17.27,131.91Z"/></g></g></g></svg>