<svg xmlns="http://www.w3.org/2000/svg" viewBox="0 0 619.45 619.45"><defs><style>.cls-1{fill:#efc9da;opacity:0.5;}.cls-1,.cls-2,.cls-3,.cls-4,.cls-5,.cls-6,.cls-7{stroke:#000;stroke-miterlimit:10;}.cls-1,.cls-2,.cls-3,.cls-4,.cls-5{stroke-width:6px;}.cls-2{fill:#aa3394;}.cls-3{fill:#28bba7;}.cls-4{fill:#87c455;}.cls-5{fill:#f05c35;}.cls-6{fill:none;stroke-width:8px;}.cls-7{stroke-width:0.75px;}</style></defs><title>color__7tetra</title><g id="Layer_2" data-name="Layer 2"><g id="Layer_1-2" data-name="Layer 1"><path class="cls-1" d="M290.57,205,254.63,71.44c-5.87-21.79,4.89-45.31,22.65-58.28,18.43-13.47,44.05-13.35,62.9-.76.48.32,3.79,2.05,9,7.56,10.19,10.76,18.54,28.43,16.06,43.52S328.57,206,328.57,206c-3.79-.69-7.59-1.33-11.4-1.88-5.11-.74-10.24-.25-15.35.12-2.36.17-4.72.31-7.08.46C294,204.77,291.24,205.41,290.57,205Z"/><path class="cls-2" d="M240.76,228.59l-97.9-97.68c-16-15.94-18.42-41.68-9.53-61.8,9.23-20.88,31.48-33.59,54.09-32.11.58,0,4.31-.12,11.58,2,14.21,4.22,30.28,15.35,35.67,29.66s39.53,141.8,39.53,141.8c-3.62,1.3-7.24,2.64-10.81,4.07-4.79,1.91-9,4.9-13.24,7.78-2,1.32-3.93,2.63-5.9,3.94C243.61,226.71,241.56,228.63,240.76,228.59Z"/><path class="cls-1" d="M209.43,273.94,75.81,238.3C54,232.48,39,211.41,36.66,189.54c-2.45-22.7,10.47-44.82,30.79-54.85.52-.26,3.67-2.26,11.06-4,14.42-3.45,33.9-1.84,45.72,7.85s105.13,103,105.13,103c-2.49,2.94-4.95,5.91-7.33,8.93-3.2,4.05-5.33,8.74-7.58,13.35-1,2.13-2.09,4.24-3.15,6.36C211,270.89,210.14,273.58,209.43,273.94Z"/><path class="cls-1" d="M205,328.88,71.44,364.82c-21.79,5.87-45.31-4.89-58.28-22.65-13.47-18.43-13.35-44.05-.76-62.9.32-.48,2.05-3.79,7.56-9,10.76-10.19,28.43-18.54,43.52-16.06S206,290.88,206,290.88c-.69,3.79-1.33,7.59-1.88,11.4-.74,5.11-.25,10.24.12,15.35.17,2.36.31,4.72.46,7.08C204.77,325.47,205.41,328.22,205,328.88Z"/><path class="cls-1" d="M228.59,378.69l-97.68,97.9c-15.94,16-41.68,18.42-61.8,9.53C48.23,476.89,35.53,454.64,37,432c0-.58-.12-4.31,2-11.58,4.22-14.21,15.35-30.28,29.66-35.67s141.8-39.53,141.8-39.53c1.3,3.62,2.64,7.24,4.07,10.81,1.91,4.79,4.9,9,7.78,13.24,1.32,2,2.63,3.93,3.94,5.9C226.71,375.84,228.63,377.9,228.59,378.69Z"/><path class="cls-3" d="M273.94,410,238.3,543.64c-5.82,21.8-26.89,36.79-48.75,39.15-22.7,2.45-44.82-10.47-54.85-30.79-.26-.52-2.26-3.67-4-11.06-3.45-14.42-1.84-33.9,7.85-45.72s103-105.13,103-105.13c2.94,2.49,5.91,4.95,8.93,7.33,4.05,3.2,8.74,5.33,13.35,7.58,2.13,1,4.24,2.09,6.36,3.15C270.89,408.49,273.58,409.31,273.94,410Z"/><path class="cls-1" d="M328.88,414.48,364.82,548c5.87,21.79-4.89,45.31-22.65,58.28-18.43,13.47-44.05,13.35-62.9.76-.48-.32-3.79-2.05-9-7.56-10.19-10.76-18.54-28.43-16.06-43.52s36.67-142.56,36.67-142.56c3.79.69,7.59,1.33,11.4,1.88,5.11.74,10.24.25,15.35-.12,2.36-.17,4.72-.31,7.08-.46C325.47,414.68,328.22,414,328.88,414.48Z"/><path class="cls-4" d="M378.69,390.87l97.9,97.68c16,15.94,18.42,41.68,9.53,61.8-9.23,20.88-31.48,33.59-54.09,32.11-.58,0-4.31.12-11.58-2-14.21-4.22-30.28-15.35-35.67-29.66s-39.53-141.8-39.53-141.8c3.62-1.3,7.24-2.64,10.81-4.07,4.79-1.91,9-4.9,13.24-7.78,2-1.32,3.93-2.63,5.9-3.94C375.84,392.75,377.9,390.83,378.69,390.87Z"/><path class="cls-1" d="M410,345.52l133.62,35.64c21.8,5.82,36.79,26.89,39.15,48.75,2.45,22.7-10.47,44.82-30.79,54.85-.52.26-3.67,2.26-11.06,4-14.42,3.45-33.9,1.84-45.72-7.85s-105.13-103-105.13-103C392.59,375,395,372,397.43,369c3.2-4.05,5.33-8.74,7.58-13.35,1-2.13,2.09-4.24,3.15-6.36C408.49,348.57,409.31,345.87,410,345.52Z"/><path class="cls-1" d="M414.48,290.57,548,254.63c21.79-5.87,45.31,4.89,58.28,22.65,13.47,18.43,13.35,44.05.76,62.9-.32.48-2.05,3.79-7.56,9-10.76,10.19-28.43,18.54-43.52,16.06s-142.56-36.67-142.56-36.67c.69-3.79,1.33-7.59,1.88-11.4.74-5.11.25-10.24-.12-15.35-.17-2.36-.31-4.72-.46-7.08C414.68,294,414,291.24,414.48,290.57Z"/><path class="cls-1" d="M390.87,240.76l97.68-97.9c15.94-16,41.68-18.42,61.8-9.53,20.88,9.23,33.59,31.48,32.11,54.09,0,.58.12,4.31-2,11.58-4.22,14.21-15.35,30.28-29.66,35.67s-141.8,39.53-141.8,39.53c-1.3-3.62-2.64-7.24-4.07-10.81-1.91-4.79-4.9-9-7.78-13.24-1.32-2-2.63-3.93-3.94-5.9C392.75,243.61,390.83,241.56,390.87,240.76Z"/><path class="cls-5" d="M345.52,209.43,381.16,75.81C387,54,408,39,429.91,36.66c22.7-2.45,44.82,10.47,54.85,30.79.26.52,2.26,3.67,4,11.06,3.45,14.42,1.84,33.9-7.85,45.72s-103,105.13-103,105.13C375,226.86,372,224.41,369,222c-4.05-3.2-8.74-5.33-13.35-7.58-2.13-1-4.24-2.09-6.36-3.15C348.57,211,345.87,210.14,345.52,209.43Z"/><circle class="cls-6" cx="310.1" cy="310.1" r="89.92" transform="translate(-95.07 477.93) rotate(-67.5)"/><polygon class="cls-7" points="314.46 327.68 312.48 315.52 301.25 320.56 338.45 251.51 339.21 250.1 347.85 234.04 361.06 241.16 314.46 327.68"/><polygon class="cls-7" points="361.99 265.9 350.25 243.26 325.76 243.51 391.47 173.66 361.99 265.9"/><polygon class="cls-7" points="299.82 313.45 311.03 317.65 312.26 305.74 352.35 370.4 353.17 371.72 362.49 386.75 350.05 394.46 299.82 313.45"/><polygon class="cls-7" points="323.51 379.45 348.38 379.61 359.29 358.35 389.71 446.82 323.51 379.45"/><polygon class="cls-7" points="309.73 305.42 311.51 316.85 322.51 313.28 285.5 373.5 284.74 374.73 276.14 388.72 263.36 380.87 309.73 305.42"/><polygon class="cls-7" points="262.08 355.8 273.36 378.67 297.85 378.91 230.75 447.43 262.08 355.8"/><polygon class="cls-7" points="321.53 320.72 310.6 316.93 308.59 328.32 272.79 267.37 272.06 266.13 263.74 251.96 276.67 244.36 321.53 320.72"/><polygon class="cls-7" points="299.41 255 273.92 254.23 262.21 275.74 233.21 184.33 299.41 255"/></g></g></svg>