<svg xmlns="http://www.w3.org/2000/svg" viewBox="0 0 123.57 208.14"><defs><style>.cls-1{fill:none;}.cls-1,.cls-2{stroke:#000;stroke-miterlimit:10;stroke-width:4px;}.cls-2{fill:#fff;}</style></defs><title>length_medium</title><g id="Layer_2" data-name="Layer 2"><g id="Layer_1-2" data-name="Layer 1"><g id="lengthMiddle"><path class="cls-1" d="M2,205.17c3.5-26.86,2.13-54.29,3.24-81.32q.24-5.79.53-11.58c.57-11.2.67-22.7,2.84-33.74C11.51,63.69,18,49.35,28,37.92c12.92-14.77,50.44-12.5,61.72-5a53.12,53.12,0,0,1,18.06,20.37c4.73,9.53,5.94,20.21,7.65,30.57,4.4,26.66,5.39,53.69,5.87,80.66.26,14.4.3,29.08.25,43.58"/><line class="cls-1" x1="39.35" y1="174.98" x2="84.93" y2="173.8"/><path class="cls-2" d="M27,124.86c1.5,11.15,18.58,19.42,33.87,19.77,28.81.67,36.64-17.42,37.62-25.17C108.2,43,95.77,2,61.77,2,31.68,2,14.67,33.34,27,124.86Z"/></g></g></g></svg>