<svg xmlns="http://www.w3.org/2000/svg" viewBox="0 0 102.68 219.02"><defs><style>.cls-1{fill:none;}.cls-1,.cls-2{stroke:#000;stroke-miterlimit:10;stroke-width:4px;}.cls-2{fill:#fff;}</style></defs><title>shapesquare</title><g id="Layer_2" data-name="Layer 2"><g id="Layer_1-2" data-name="Layer 1"><g id="square"><path class="cls-1" d="M2.55,217.77c0-27.45-2.17-64,2.08-112,1-11.07.4-19.58,13.59-34.14C30.18,58.45,69,60.44,79.83,67c17.89,10.86,19.7,28.74,20.66,45.47.35,6.18.09,99.11.06,106.53"/><line class="cls-1" x1="24" y1="188.69" x2="69.44" y2="188.52"/><path class="cls-2" d="M15.55,134.83c0,15,18.91,22.94,34.2,23.3,28.81.67,36.8-15.57,36.8-23.38,0-52.75.6-132.54.6-132.54S63.64,2,52.08,2H15.53S15.38,75.83,15.55,134.83Z"/></g></g></g></svg>