<svg xmlns="http://www.w3.org/2000/svg" viewBox="0 0 102.68 218.14"><defs><style>.cls-1{fill:none;}.cls-1,.cls-2{stroke:#000;stroke-width:4px;}.cls-1,.cls-2,.cls-3{stroke-miterlimit:10;}.cls-2{fill:#ccc;}.cls-3{fill:#fff;stroke:gray;stroke-width:3px;}</style></defs><title>style__7floral</title><g id="Layer_2" data-name="Layer 2"><g id="Layer_1-2" data-name="Layer 1"><g id="floral"><path class="cls-1" d="M2.55,216.89c0-27.45-2.17-64,2.08-112,1-11.07.4-19.58,13.59-34.14,12-13.2,50.78-11.22,61.61-4.64C97.72,77,99.53,94.87,100.49,111.6c.35,6.18.09,99.11.06,106.53"/><line class="cls-1" x1="32.72" y1="186.08" x2="78.16" y2="185.92"/><path class="cls-2" d="M15.29,131.5c0,18.87,22.87,27,38,26.48,28.55-1,32.91-19.23,33-27,.88-48.69,1.28-76.25,0-91.69C84.13,13.29,64.81,2,53.41,2,42.84,2,16,8.17,15.29,51.5,14.93,73.13,15.29,76.75,15.29,131.5Z"/><path class="cls-3" d="M46.81,152.83c.32-.28.63-.91,1-1.13a6.85,6.85,0,0,1,1.72-.75c1.18-.4,2.43-.83,2.9-2.11-.15.42,5.29,2.32,5.77,2.5,2.69,1,5,1.23,7.61-.25,3.18-1.78,5.43-4.77,8-7.24,1.1-1,3.06-1.06,3-1.55-.16-1.61-3.76-2.36-4.93-2.69-3.85-1.08-7.88-1.46-11.69,0A12.3,12.3,0,0,0,53,146.42c-.59,1.46-3.33.76-4.49,1.75,1.29-1.11,1.76-2.91,2.35-4.44a47.43,47.43,0,0,1,2.62-5.21c.5-.94,1.59-2.12.86-3.25a2.73,2.73,0,0,0-3-.79,3.5,3.5,0,0,0-2.17,2.31,38.71,38.71,0,0,0-1.69,5.26c-.31,1.2-.42,3.93-2,4.2-1,.17-1.88-1.37-2.58-1.87a8.73,8.73,0,0,0-3.44-1.49,13.24,13.24,0,0,0-3.24-.19c-1,.06-2.08.43-3.09.44a9.24,9.24,0,0,1-3.73.43c-.64-.11-.07,1.1,2.65,3.66,1.91,1.8,4.06,3.86,6.68,4.57,3.45.94,5.08-1.79,7.73-3.33L45,151.29a1.05,1.05,0,0,0-.13,1,.92.92,0,0,0,.37.3,4.36,4.36,0,0,0,.78.32,1.07,1.07,0,0,0,.57,0A.55.55,0,0,0,46.81,152.83Z"/><path class="cls-3" d="M44.45,134a14.32,14.32,0,0,0-6.65-3.72c-2.32-.61-4.76-.51-7-1.59-1.74-.85-2.78-1.8-3.12-1.48s.29,1.3,1.66,3.82c2,3.69,4.14,7.7,7.91,9.86,2.26,1.3,5,1.7,7.48,2.33a3.22,3.22,0,0,0,1.28.14c1.88-.31,1.39-3.47,1.08-4.73A10.19,10.19,0,0,0,44.45,134Z"/><path class="cls-3" d="M56.4,109.26c1.28-7.6,6.2-15.67,13.75-18.34a8.21,8.21,0,0,1,7.71.86c2.37,1.79,3.91,5.73,1.91,8.37-.35.46-.77.79-.68,1.17.14.57,1.18.51,2.09,1,1.83.9,2.35,3,2.37,4.89a7.19,7.19,0,0,1-2,5.24c-.29.32-2,2.4-3.93,1.71-1.82-.64-3.34-1.85-5.09-2.64a26.06,26.06,0,0,0-8-2C63.87,109.36,56.43,109.1,56.4,109.26Z"/><path class="cls-3" d="M56.2,110.72c.49,2,1.38,3.79,1.66,5.87a23.52,23.52,0,0,1-.23,6.47c-.52,3.52,1.2,6.07,4.23,7.7,2,1.09,5.24,2.25,7.21.44s.48-5,3.35-6.06c2.68-1,6.4-.57,7.28-4.11,1-3.82-2.18-7-5.45-8.37a29.44,29.44,0,0,0-9.94-2.06C63.63,110.56,56.22,110.8,56.2,110.72Z"/><path class="cls-3" d="M54.37,110.92c-2-.06-3.82,1.42-5.51,2.37a17.79,17.79,0,0,1-6.61,2c-4.1.49-7,5.19-4.48,8.84,1.31,1.89,3.39,1.8,5.33,2.58a2.83,2.83,0,0,1,1.29.91,5,5,0,0,1,.57,1.51,6.82,6.82,0,0,0,7.38,4.6c3.32-.54,4.9-4,5.59-6.92q.08-.32.14-.65c.86-4.25,1.13-8.84-.73-12.75-.57-1.2-1.51-2.41-2.83-2.53Z"/><path class="cls-3" d="M55,108.94a44.65,44.65,0,0,1-4.16-4.61c-1.89-2.62-3.12-5.68-5.21-8.16C43,93,36.9,91.06,33.51,94.4c-2,1.94-1,4.74-1.38,7.16a5,5,0,0,1-.43,1.93c-.71,1.1-1.82,1.84-2.54,2.92-2,2.93.11,6,2.62,7.68,3.17,2.18,6.74,2.49,10.45,1.67a25.36,25.36,0,0,0,8.88-3.88C51.46,111.64,55,108.93,55,108.94Z"/><path class="cls-3" d="M65.5,91.13a5.65,5.65,0,0,0-1.58-4.84,9.09,9.09,0,0,0-6-3c-2-.08-3.42,1-4.85,2.31A4.17,4.17,0,0,1,50.31,85a6.49,6.49,0,0,0-7.61.32c-2.86,2.42-2.12,6.08.13,8.61,1.88,2.12,3.66,4.31,5.59,6.38a42.73,42.73,0,0,1,6.36,8.19,1.5,1.5,0,0,0,.4.53c.82.58,1.41-1.37,1.63-1.84,1.62-3.63,4.12-6.65,6.17-10A16.26,16.26,0,0,0,65.5,91.13Z"/><path class="cls-3" d="M78.06,90.7c.34-1.17-.15-2.52-.22-3.71a25.37,25.37,0,0,1,.11-5A27.85,27.85,0,0,1,80,74.8a48.73,48.73,0,0,0,2.29-6c1.17-4.24.23-8.32-1.58-12.21C78.45,51.69,75.26,47,70.67,44.18c.47,1.33-.11,2.78-.56,4.12A28,28,0,0,0,68.85,59a22.1,22.1,0,0,0,2.68,10.06,10.4,10.4,0,0,0,6.59,5c-2.77-.56-1.71,6.1-1.49,7.37a2.89,2.89,0,0,1-.24,2.09,2.93,2.93,0,0,1-1.38,1,10.47,10.47,0,0,1-9.89-1.1,15.27,15.27,0,0,1-4.66-6c-1.22-2.52-2.07-5.21-3.18-7.78,3.39.8,6.9,1,10.25,2a13,13,0,0,1,6.24,3.55,12.2,12.2,0,0,1,2.83,8.36.84.84,0,0,1-.35-.19"/><path class="cls-3" d="M40.72,8a27.42,27.42,0,0,0-2.56,3.45c-3.28,4.32-8.74,6.36-11.82,10.87-2,2.93-2.61,6.5-2.82,10-.31,5.08.12,10.37,2.55,14.84.41-1.5,1.75-2.53,2.91-3.57a28,28,0,0,0,7-10.14,20.06,20.06,0,0,0,1.78-8.16,10.59,10.59,0,0,0-1.13-4.39,15.92,15.92,0,0,0-1.15-1.95A14.57,14.57,0,0,1,34.06,17c.9,0,1.7.19,2.54-.33a3.68,3.68,0,0,0,1.22-1.47c.51-1,.83-2,1.37-3a4,4,0,0,1,2.42-2.06,4.2,4.2,0,0,1,1.89.1,10.51,10.51,0,0,1,5.6,3.54A11.63,11.63,0,0,1,51.63,20c.42,4-1.12,7.9-1.16,11.89C49.6,31,49,29.89,48.16,29a5,5,0,0,0-2-1.41c-.79-.28-1.65-.16-2.45-.43a11.35,11.35,0,0,1-4.82-3.78,9.84,9.84,0,0,1-2.57-6.66A6.29,6.29,0,0,1,37,14.38"/></g></g></g></svg>