<svg xmlns="http://www.w3.org/2000/svg" viewBox="0 0 102.68 218.14"><defs><style>.cls-1{fill:none;}.cls-1,.cls-2{stroke:#000;stroke-miterlimit:10;stroke-width:4px;}.cls-2{fill:#ccc;}.cls-3{fill:#fff;}.cls-4{fill:#999;}</style></defs><title>style__1dots</title><g id="Layer_2" data-name="Layer 2"><g id="Layer_1-2" data-name="Layer 1"><g id="dots"><path class="cls-1" d="M2.55,216.89c0-27.45-2.17-64,2.08-112,1-11.07.4-19.58,13.59-34.14,12-13.2,50.78-11.22,61.61-4.64C97.72,77,99.53,94.87,100.49,111.6c.35,6.18.09,99.11.06,106.53"/><line class="cls-1" x1="32.72" y1="186.08" x2="78.16" y2="185.92"/><path class="cls-2" d="M15.29,131.5c0,18.87,22.87,27,38,26.48,28.55-1,32.91-19.23,33-27,.88-48.69,1.28-76.25,0-91.69C84.13,13.29,64.81,2,53.41,2,42.84,2,16,8.17,15.29,51.5,14.93,73.13,15.29,76.75,15.29,131.5Z"/><circle class="cls-3" cx="56.75" cy="22.9" r="7.54"/><path class="cls-3" d="M83.3,34.94c.42,4.14-.56,7.54-4.73,7.54a7.54,7.54,0,0,1,0-15.08C81.05,27.4,82.87,30.78,83.3,34.94Z"/><circle class="cls-3" cx="71.04" cy="61.89" r="8.12"/><circle class="cls-3" cx="78.26" cy="93.79" r="6.43"/><circle class="cls-3" cx="69.82" cy="123.48" r="7.54"/><circle class="cls-3" cx="54.93" cy="145.83" r="7.54"/><circle class="cls-4" cx="44.49" cy="10.03" r="3.12"/><circle class="cls-4" cx="65.51" cy="13.66" r="3.13" transform="matrix(0.53, -0.85, 0.85, 0.53, 18.94, 61.71)"/><circle class="cls-4" cx="62.29" cy="46.67" r="4" transform="translate(-8.72 14.8) rotate(-12.67)"/><circle class="cls-4" cx="79.42" cy="50.61" r="3.3" transform="translate(-9.17 18.66) rotate(-12.67)"/><circle class="cls-4" cx="74.85" cy="78" r="4" transform="translate(-15.29 18.32) rotate(-12.67)"/><circle class="cls-4" cx="82.12" cy="68.98" r="2.19" transform="translate(-6.65 129.16) rotate(-74.16)"/><ellipse class="cls-4" cx="80.62" cy="108.17" rx="3.58" ry="4" transform="translate(-21.77 20.32) rotate(-12.67)"/><circle class="cls-4" cx="55.24" cy="130.16" r="3.99" transform="translate(-27.21 15.29) rotate(-12.67)"/><circle class="cls-4" cx="76.29" cy="141.02" r="2.78" transform="translate(-29.08 20.17) rotate(-12.67)"/><circle class="cls-4" cx="38.19" cy="149.59" r="4" transform="translate(-31.89 12.02) rotate(-12.67)"/></g></g></g></svg>