<svg xmlns="http://www.w3.org/2000/svg" viewBox="0 0 123.57 252.59"><defs><style>.cls-1{fill:none;}.cls-1,.cls-2{stroke:#000;stroke-miterlimit:10;stroke-width:4px;}.cls-2{fill:#fff;}</style></defs><title>Asset 3long</title><g id="Layer_2" data-name="Layer 2"><g id="Layer_1-2" data-name="Layer 1"><g id="lengthLong"><path class="cls-1" d="M2,249.62c3.55-27.23.86-62.25,5.29-117.23,1-12.69,6.08-33.27,20.73-50,12.92-14.77,50.44-12.5,61.72-5,18.63,12.45,23,29.57,25.32,48.51.88,7,6.19,22.44,6.51,106.54,0,4.67,0,11.63,0,20.12"/><line class="cls-1" x1="39.35" y1="219.42" x2="84.93" y2="218.24"/><path class="cls-2" d="M27,169.3c1.5,11.15,18.58,19.42,33.87,19.77,28.81.67,36.64-17.42,37.62-25.17C108.2,87.48,95.77,2,61.77,2,31.68,2,14.67,77.79,27,169.3Z"/></g></g></g></svg>