<svg xmlns="http://www.w3.org/2000/svg" viewBox="0 0 102.68 217.6"><defs><style>.cls-1{fill:none;}.cls-1,.cls-2,.cls-3{stroke:#000;;stroke-miterlimit:10;stroke-width:4px;}.cls-2{fill:#ba9bc9;}.cls-3{fill:#fff;}</style></defs><title>shape__4ballerina</title><g id="Layer_2" data-name="Layer 2"><g id="Layer_1-2" data-name="Layer 1"><g id="ballerina"><path class="cls-1" d="M2.55,216.35c0-27.45-2.17-64,2.08-112,1-11.07.4-19.58,13.59-34.14C30.18,57,69,59,79.83,65.59c17.89,10.86,19.7,28.74,20.66,45.47.35,6.18.09,99.11.06,106.53"/><line class="cls-1" x1="32.72" y1="185.71" x2="78.16" y2="185.55"/><path class="cls-2" d="M53.44,1.09"/><path class="cls-3" d="M18.05,127.72c0,18.87,22.56,27,37.44,26.48,28.17-1,32.47-19.23,32.61-27C89,78.47,83,58.42,79.89,43.38,75.78,23.64,68.9,5.32,66.14,2c-.15-.18-25.33.18-25.42.33C37,8.8,29.55,26.71,25.75,44,21.49,63.24,18.05,73,18.05,127.72Z"/></g></g></g></svg>