<svg xmlns="http://www.w3.org/2000/svg" viewBox="0 0 102.68 219.3"><defs><style>.cls-1{fill:none;}.cls-1,.cls-2,.cls-3{stroke:#000;stroke-miterlimit:10;stroke-width:4px;}.cls-2{fill:#fff;}.cls-3{fill:#ba9bc9;}</style></defs><title>shape__3pointed</title><g id="Layer_2" data-name="Layer 2"><g id="Layer_1-2" data-name="Layer 1"><g id="pointed"><path class="cls-1" d="M2.55,218.06c0-27.45-2.17-64,2.08-112C5.62,95,5,86.49,18.22,71.93c12-13.2,50.78-11.22,61.61-4.64C97.72,78.16,99.53,96,100.49,112.76c.35,6.18.09,99.11.06,106.53"/><line class="cls-1" x1="32.72" y1="187.42" x2="78.16" y2="187.25"/><path class="cls-2" d="M16.81,132c0,18.87,22.06,27,36.61,26.48,27.54-1,31.75-19.23,31.89-27,.84-48.69.57-36.38.57-52.07,0-6.16-2.77-13-5-20C70.79,26.79,54.53,2,53.4,2,51.73,2,39.29,18.29,22.16,58c-3,6.94-5.28,15.14-5.28,22.24C16.89,97.28,16.81,77.29,16.81,132Z"/><path class="cls-3" d="M53.44,2.79"/></g></g></g></svg>