<svg xmlns="http://www.w3.org/2000/svg" viewBox="0 0 102.68 218.87"><defs><style>.cls-1{fill:none;}.cls-1,.cls-2{stroke:#000;stroke-miterlimit:10;stroke-width:4px;}.cls-2{fill:#fff;}</style></defs><title>shape__2squoval</title><g id="Layer_2" data-name="Layer 2"><g id="Layer_1-2" data-name="Layer 1"><g id="squoval"><path class="cls-1" d="M2.55,217.63c0-27.45-2.17-64,2.08-112,1-11.07.4-19.58,13.59-34.14,12-13.2,50.78-11.22,61.61-4.64,17.89,10.86,19.7,28.74,20.66,45.47.35,6.18.09,99.11.06,106.53"/><line class="cls-1" x1="32.72" y1="186.99" x2="78.16" y2="186.82"/><path class="cls-2" d="M15.55,132.73c0,15,18.91,22.94,34.2,23.3,28.81.67,36.8-15.57,36.8-23.38,0-52.75.41-93.86.17-117.78-.12-12.2-11.62-13-33.5-12.81C32.05,2.21,15.72-.2,15.72,15,15.72,36.86,15.38,73.73,15.55,132.73Z"/></g></g></g></svg>