<svg xmlns="http://www.w3.org/2000/svg" viewBox="0 0 102.68 216.98"><defs><style>.cls-1{fill:none;}.cls-1,.cls-2{stroke:#000;stroke-miterlimit:10;stroke-width:4px;}.cls-2{fill:#fff;}</style></defs><title>shape__1almond</title><g id="Layer_2" data-name="Layer 2"><g id="Layer_1-2" data-name="Layer 1"><g id="almond"><path class="cls-1" d="M2.55,215.73c0-27.45-2.17-64,2.08-112,1-11.07.4-19.58,13.59-34.14C30.18,56.41,69,58.39,79.83,65c17.89,10.86,19.7,28.74,20.66,45.47.35,6.18.09,99.11.06,106.53"/><line class="cls-1" x1="32.72" y1="184.84" x2="78.16" y2="184.67"/><path class="cls-2" d="M15.29,130.26c0,18.87,22.87,27,38,26.48,28.55-1,32.91-19.23,33-27,.88-48.69-4-74.56-7.81-88.86C72.22,17.26,58.17,2,50.54,2,42.55,2,29.72,16.42,23,40.59,17.67,59.55,15.29,75.5,15.29,130.26Z"/></g></g></g></svg>