<svg xmlns="http://www.w3.org/2000/svg" viewBox="0 0 102.68 218.14"><defs><style>.cls-1,.cls-5,.cls-6{fill:none;}.cls-1,.cls-2{stroke:#000;}.cls-1,.cls-2,.cls-5,.cls-6{stroke-miterlimit:10;}.cls-1,.cls-2,.cls-6{stroke-width:4px;}.cls-2{fill:#ccc;}.cls-3{fill:#020202;}.cls-4{fill:#999;}.cls-5,.cls-6{stroke:#999;}.cls-5{stroke-width:5px;}</style></defs><title>style__2geometric</title><g id="Layer_2" data-name="Layer 2"><g id="Layer_1-2" data-name="Layer 1"><g id="geometric"><path class="cls-1" d="M2.55,216.89c0-27.45-2.17-64,2.08-112,1-11.07.4-19.58,13.59-34.14,12-13.2,50.78-11.22,61.61-4.64C97.72,77,99.53,94.87,100.49,111.6c.35,6.18.09,99.11.06,106.53"/><line class="cls-1" x1="32.72" y1="186.08" x2="78.16" y2="185.92"/><path class="cls-2" d="M15.29,131.5c0,18.87,22.87,27,38,26.48,28.55-1,32.91-19.23,33-27,.88-48.69,1.28-76.25,0-91.69C84.13,13.29,64.81,2,53.41,2,42.84,2,16,8.17,15.29,51.5,14.93,73.13,15.29,76.75,15.29,131.5Z"/><path class="cls-3" d="M61.36,4.12l.27,58.65L16,61.43s-.75-26,3-33.94C23.27,18.41,33.86,7.72,39,5.62,45.35,3,61.36,4.12,61.36,4.12Z"/><path class="cls-4" d="M52.05,2.43,51.34,41.1,17.8,40.7s0-13.71,6.81-23.53a34,34,0,0,1,12-10.65C41.77,3.62,52.05,2.43,52.05,2.43Z"/><polyline class="cls-5" points="84.55 50.18 38.78 50.18 38.78 70.93 84.55 70.68"/><polyline class="cls-1" points="15.28 78.68 59.43 78.68 61.66 156.18"/><polyline class="cls-6" points="17.8 86.68 50.4 86.68 52.05 155.43"/></g></g></g></svg>