<svg xmlns="http://www.w3.org/2000/svg" viewBox="0 0 102.68 218.14"><defs><style>.cls-1,.cls-4{fill:none;}.cls-1,.cls-2{stroke:#000;stroke-width:4px;}.cls-1,.cls-2,.cls-3,.cls-4{stroke-miterlimit:10;}.cls-2{fill:#ccc;}.cls-3{fill:#fff;stroke:#fff;stroke-width:2px;}.cls-4{stroke:#666;stroke-width:7px;}</style></defs><title>style__6line</title><g id="Layer_2" data-name="Layer 2"><g id="Layer_1-2" data-name="Layer 1"><g id="line"><path class="cls-1" d="M2.55,216.89c0-27.45-2.17-64,2.08-112,1-11.07.4-19.58,13.59-34.14,12-13.2,50.78-11.22,61.61-4.64C97.72,77,99.53,94.87,100.49,111.6c.35,6.18.09,99.11.06,106.53"/><line class="cls-1" x1="32.72" y1="186.08" x2="78.16" y2="185.92"/><path class="cls-2" d="M15.29,131.5c0,18.87,22.87,27,38,26.48,28.55-1,32.91-19.23,33-27,.88-48.69,1.28-76.25,0-91.69C84.13,13.29,64.81,2,53.41,2,42.84,2,16,8.17,15.29,51.5,14.93,73.13,15.29,76.75,15.29,131.5Z"/><path class="cls-3" d="M68.46,152.16A17.88,17.88,0,0,0,75.9,147c.64-.72-1.39-.59-1.72-.65-5.26-.95-8.7-7.7-10.16-12.27a25,25,0,0,1,.43-17.15c2.25-5.34,6.61-9.41,9.77-14.19s6.45-9.94,7.5-15.83c1.22-6.83-.31-12.48-1.45-16.68C75.84,53.88,62.55,41,64.38,23.08c.4-3.93.84-4.05,2.21-10.24.14-.62,1-3.06,1-3.06a27.5,27.5,0,0,0-15.5-4.62c-9.6.55-15,3.83-16.62,6.18a22.21,22.21,0,0,0-3.91,15c.65,5.85,4.14,10.3,7.88,14.6C48,50.84,62.93,56.2,68.61,68.62a26.67,26.67,0,0,1-1,23.31c-1.78,3.18-4.31,5.36-7.15,7.54a68.2,68.2,0,0,0-9.59,8.81c-5.72,6.42-13.81,15.77-13.43,28.09.26,8.51,4,16.75,12.88,18.45C52,155.15,58.83,155.82,68.46,152.16Z"/><path class="cls-4" d="M84.76,130.18c-8.21-7.76-16.75-15.31-23.51-24.42s-5.67-20.4-.76-30.16c.4-.79,3.31-5.29,9.3-14.19,5.78-8.59,14.64-19.75,11.53-30.84A15.21,15.21,0,0,0,70.25,19.68c-6.36-1.45-12.81,1.81-17.76,5.56a58.89,58.89,0,0,0-8.43,8c-2.32,2.62-4.95,6.29-8.91,6-6.63-.49-9.19-6.59-14.92-8.67"/></g></g></g></svg>